<svg width="236" height="260" viewBox="0 0 236 260" fill="none" xmlns="http://www.w3.org/2000/svg">
<path d="M187.293 232.228H175.423C175.293 232.228 175.193 232.268 175.123 232.338C175.043 232.408 175.013 232.508 175.013 232.638V233.558C175.013 233.688 175.053 233.788 175.123 233.858C175.193 233.938 175.293 233.968 175.423 233.968H180.483V241.428C180.483 241.558 180.523 241.658 180.593 241.728C180.663 241.808 180.763 241.838 180.893 241.838H181.813C181.943 241.838 182.043 241.798 182.113 241.728C182.183 241.658 182.223 241.558 182.223 241.428V233.968H187.293C187.423 233.968 187.523 233.928 187.593 233.858C187.663 233.788 187.703 233.688 187.703 233.558V232.638C187.703 232.508 187.663 232.408 187.593 232.338C187.523 232.268 187.423 232.228 187.293 232.228Z" fill="white"/>
<path d="M201.363 235.768H200.653C200.523 235.768 200.413 235.718 200.323 235.628L200.173 235.508V235.318V234.908C200.173 234.788 200.133 234.688 200.053 234.608L199.363 233.918C199.293 233.848 199.193 233.808 199.073 233.808H198.683C198.553 233.808 198.443 233.758 198.353 233.668C198.253 233.568 198.213 233.458 198.213 233.328V232.658C198.213 232.528 198.173 232.428 198.103 232.358C198.033 232.288 197.933 232.248 197.803 232.248H196.883C196.753 232.248 196.653 232.288 196.583 232.358C196.513 232.428 196.473 232.528 196.473 232.658L196.493 233.328C196.493 233.458 196.443 233.568 196.353 233.668C196.253 233.768 196.143 233.808 196.013 233.808H194.753C194.623 233.808 194.513 233.758 194.413 233.668C194.313 233.568 194.273 233.458 194.273 233.328V232.658C194.273 232.528 194.233 232.428 194.163 232.358C194.083 232.288 193.993 232.248 193.863 232.248H192.943C192.813 232.248 192.713 232.288 192.643 232.358C192.573 232.428 192.533 232.528 192.533 232.658L192.543 233.328C192.543 233.458 192.493 233.568 192.403 233.668C192.303 233.768 192.193 233.808 192.063 233.808H191.693C191.563 233.808 191.463 233.848 191.393 233.928L190.793 234.588C190.723 234.658 190.683 234.748 190.683 234.858L190.673 235.198C190.673 235.328 190.633 235.438 190.533 235.538C190.443 235.638 190.323 235.688 190.193 235.688H189.533C189.403 235.688 189.303 235.728 189.233 235.798C189.153 235.868 189.123 235.968 189.123 236.098V241.428C189.123 241.558 189.163 241.658 189.233 241.728C189.303 241.808 189.403 241.838 189.533 241.838H190.423C190.553 241.838 190.653 241.798 190.723 241.728C190.793 241.658 190.833 241.558 190.833 241.438L190.873 236.488C190.873 236.218 190.943 236.058 191.073 235.988C191.203 235.918 191.393 235.888 191.643 235.898C191.693 235.908 191.753 235.898 191.813 235.878C191.863 235.858 191.913 235.828 191.953 235.788L192.623 235.128C192.703 235.048 192.743 234.948 192.743 234.838V234.448C192.743 234.318 192.793 234.208 192.883 234.108C192.973 234.008 193.093 233.968 193.223 233.968H193.673C193.953 233.968 194.093 234.128 194.103 234.448V234.848C194.103 234.938 194.133 235.028 194.203 235.108L194.303 235.218C194.393 235.318 194.413 235.428 194.373 235.558C194.323 235.678 194.233 235.738 194.113 235.738H193.453C193.323 235.738 193.223 235.778 193.153 235.848C193.083 235.918 193.043 236.018 193.043 236.148V237.068C193.043 237.198 193.083 237.298 193.153 237.368C193.233 237.448 193.323 237.478 193.453 237.478H194.343C194.473 237.478 194.573 237.438 194.643 237.368C194.713 237.298 194.753 237.198 194.753 237.068L194.773 236.378C194.773 236.238 194.813 236.118 194.893 236.018C194.973 235.908 195.143 235.868 195.413 235.878C195.573 235.878 195.693 235.898 195.783 235.928C195.873 235.958 195.943 235.998 195.983 236.048C196.023 236.098 196.053 236.158 196.063 236.228C196.073 236.298 196.083 236.368 196.083 236.438V237.078C196.083 237.208 196.123 237.308 196.193 237.378C196.273 237.448 196.363 237.488 196.493 237.488H197.403C197.533 237.488 197.633 237.448 197.703 237.378C197.783 237.308 197.813 237.208 197.813 237.078V236.158C197.803 236.028 197.763 235.928 197.693 235.858C197.623 235.788 197.523 235.748 197.403 235.748H196.633C196.513 235.718 196.433 235.648 196.383 235.538C196.333 235.428 196.373 235.328 196.503 235.218L196.623 235.138C196.693 235.088 196.733 234.998 196.733 234.888V234.438C196.733 234.308 196.783 234.198 196.873 234.098C196.973 233.998 197.083 233.958 197.213 233.958H197.613C197.743 233.958 197.853 234.008 197.943 234.098C198.033 234.188 198.083 234.308 198.093 234.438V234.838C198.093 234.948 198.133 235.038 198.213 235.128L198.863 235.788C198.943 235.868 199.043 235.918 199.153 235.918C199.423 235.928 199.653 235.958 199.823 235.998C199.993 236.048 200.073 236.188 200.073 236.438L200.093 241.408C200.093 241.538 200.133 241.638 200.203 241.708C200.273 241.788 200.373 241.818 200.503 241.818H201.433C201.553 241.818 201.653 241.778 201.723 241.708C201.793 241.638 201.833 241.538 201.843 241.408V236.148C201.843 236.018 201.803 235.918 201.733 235.848C201.593 235.798 201.493 235.768 201.363 235.768Z" fill="white"/>
<path d="M76.9032 112.908C78.5632 111.498 80.6932 110.538 81.9532 108.758C86.3532 102.568 89.8632 101.828 91.1032 101.178C95.2432 102.728 122.563 123.688 143.803 136.268C146.413 137.818 149.583 137.998 151.953 139.238C156.673 141.708 161.273 142.278 164.563 142.538C165.213 142.588 165.393 141.868 164.893 141.438C157.963 135.628 147.213 127.208 133.723 115.618C134.473 113.998 135.873 114.178 136.003 111.918C136.163 109.018 138.913 108.828 139.123 106.088C139.333 103.348 136.113 92.6675 135.033 91.3175C133.953 89.9675 124.203 90.0275 122.923 90.1675C121.033 90.3675 119.393 97.0775 117.993 101.708C113.623 97.7275 109.073 93.4875 104.343 88.9475C123.623 72.4475 143.773 57.5575 163.993 42.8875C166.993 37.0975 170.753 34.0375 176.163 30.2075C183.253 23.4375 198.563 11.9375 198.783 10.7575C199.003 9.58755 196.413 9.57754 196.793 8.65754C197.173 7.73754 205.183 2.13755 205.213 1.53755C205.233 0.937548 206.013 0.367549 205.773 0.00754914C205.533 -0.352451 183.343 12.2475 173.373 19.7375C168.223 19.3675 165.593 22.5075 161.893 25.2175C150.433 30.2475 134.113 43.6475 133.053 45.1075C131.993 46.5675 129.093 51.3875 126.533 50.8875C123.973 50.3875 112.063 60.8375 107.673 63.1275C86.5032 81.4375 61.6032 97.4875 43.0832 119.018C54.4632 95.1375 78.5532 58.6975 90.5232 39.5175C97.2932 27.8175 93.8632 29.8275 92.3432 25.4875C90.8232 21.1475 83.9032 24.1275 81.4332 22.6475C78.1532 20.6875 74.8332 29.2475 72.9332 30.8775C70.2032 33.2075 68.7932 36.7375 66.9732 39.8275C45.8232 76.9175 29.5532 108.908 8.5232 146.008C0.343201 158.748 -5.8768 163.018 9.0832 173.948C18.0932 183.168 23.8732 165.628 30.5332 160.208C45.7532 144.328 60.1032 127.188 76.9032 112.908Z" fill="white"/>
<path d="M232.843 86.3275C228.343 85.1975 220.283 82.1875 217.673 87.6275C215.733 95.0775 211.593 101.558 208.603 108.588C200.803 123.028 193.353 137.718 185.603 152.258C185.413 150.258 185.153 148.278 184.723 146.338C184.493 145.308 183.533 144.598 182.493 144.658C158.993 146.098 128.073 156.628 105.733 164.768C112.003 153.588 120.433 140.358 126.313 130.648C120.653 126.908 115.013 123.018 109.823 119.398C94.5332 148.468 62.9032 201.717 61.0432 209.887C58.6232 220.567 51.6132 229.177 51.0432 237.387C50.4832 245.597 53.0332 236.698 53.6632 236.798C54.2932 236.898 53.9132 241.348 52.3432 243.338C51.8432 243.968 51.7032 244.788 51.7432 245.588C51.8632 248.118 49.3931 250.677 50.4031 253.157C51.1931 255.117 50.0232 257.398 50.4132 258.208C50.8432 259.078 52.1732 260.177 52.7832 259.217C64.2632 241.207 80.7632 209.508 97.3432 179.758C97.9232 178.708 98.5532 178.288 99.3432 178.048C100.133 177.808 101.523 177.257 102.133 177.887C102.733 178.517 101.853 180.258 102.593 180.928C103.333 181.598 110.353 178.118 111.363 178.498C112.373 178.878 111.333 179.458 112.223 179.948C113.113 180.438 154.273 169.818 157.553 169.948C160.833 170.078 173.383 167.808 175.003 167.588C175.513 167.518 176.443 167.308 177.553 166.948C172.793 175.468 166.853 183.318 162.603 192.148C156.393 205.018 144.473 218.628 142.623 229.248C141.633 234.888 156.283 248.137 159.433 241.887C166.623 227.607 171.243 214.187 178.813 200.887C193.123 175.757 206.793 150.438 220.863 125.258C225.413 118.288 228.253 110.617 233.513 104.137C236.823 99.5575 236.693 90.6075 232.843 86.3275Z" fill="white"/>
</svg>
